<svg width="1200" height="720" viewBox="0 0 1200 720" fill="none" xmlns="http://www.w3.org/2000/svg">
  <rect width="1200" height="720" rx="36" fill="#F7F9FC"/>
  <rect x="24" y="24" width="1152" height="672" rx="28" fill="white" stroke="#DDE6F3"/>
  <rect x="48" y="48" width="240" height="624" rx="24" fill="#F8FAFE" stroke="#E3EAF6"/>
  <rect x="316" y="48" width="836" height="96" rx="28" fill="white" stroke="#E1E8F4"/>
  <rect x="340" y="74" width="400" height="42" rx="21" fill="#F3F7FD" stroke="#DDE6F3"/>
  <circle cx="88" cy="96" r="20" fill="#4C8BF5"/>
  <text x="126" y="102" fill="#1F2937" font-family="Inter, Arial, sans-serif" font-size="24" font-weight="700">Magnexis APIHub</text>
  <text x="340" y="105" fill="#6B7280" font-family="Inter, Arial, sans-serif" font-size="18">Search APIs, categories, endpoints, workflows, or tools</text>
  <rect x="340" y="178" width="220" height="120" rx="24" fill="#EAF2FF" stroke="#D8E6FF"/>
  <rect x="580" y="178" width="220" height="120" rx="24" fill="#EAF8EF" stroke="#D5F0DD"/>
  <rect x="820" y="178" width="220" height="120" rx="24" fill="#FFF5E8" stroke="#F7DDB2"/>
  <text x="364" y="220" fill="#1F2937" font-family="Inter, Arial, sans-serif" font-size="20" font-weight="700">Total APIs</text>
  <text x="364" y="260" fill="#4C8BF5" font-family="Inter, Arial, sans-serif" font-size="40" font-weight="800">700+</text>
  <text x="604" y="220" fill="#1F2937" font-family="Inter, Arial, sans-serif" font-size="20" font-weight="700">Tests Today</text>
  <text x="604" y="260" fill="#16A34A" font-family="Inter, Arial, sans-serif" font-size="40" font-weight="800">128</text>
  <text x="844" y="220" fill="#1F2937" font-family="Inter, Arial, sans-serif" font-size="20" font-weight="700">Avg Latency</text>
  <text x="844" y="260" fill="#D97706" font-family="Inter, Arial, sans-serif" font-size="40" font-weight="800">19 ms</text>
  <rect x="340" y="326" width="500" height="346" rx="28" fill="white" stroke="#E1E8F4"/>
  <rect x="864" y="326" width="312" height="346" rx="28" fill="white" stroke="#E1E8F4"/>
  <text x="368" y="370" fill="#111827" font-family="Inter, Arial, sans-serif" font-size="24" font-weight="700">Recommended APIs</text>
  <rect x="368" y="394" width="444" height="64" rx="18" fill="#F8FAFE" stroke="#E3EAF6"/>
  <rect x="368" y="472" width="444" height="64" rx="18" fill="#F8FAFE" stroke="#E3EAF6"/>
  <rect x="368" y="550" width="444" height="64" rx="18" fill="#F8FAFE" stroke="#E3EAF6"/>
  <text x="392" y="432" fill="#1F2937" font-family="Inter, Arial, sans-serif" font-size="18" font-weight="600">JSON Formatter</text>
  <text x="392" y="510" fill="#1F2937" font-family="Inter, Arial, sans-serif" font-size="18" font-weight="600">Meta Tag Generator</text>
  <text x="392" y="588" fill="#1F2937" font-family="Inter, Arial, sans-serif" font-size="18" font-weight="600">Quest Generator</text>
  <text x="900" y="370" fill="#111827" font-family="Inter, Arial, sans-serif" font-size="24" font-weight="700">Quick Actions</text>
  <rect x="888" y="396" width="252" height="56" rx="18" fill="#EAF2FF"/>
  <rect x="888" y="462" width="252" height="56" rx="18" fill="#F8FAFE"/>
  <rect x="888" y="528" width="252" height="56" rx="18" fill="#EAF8EF"/>
  <rect x="888" y="594" width="252" height="56" rx="18" fill="#FFF5E8"/>
  <text x="920" y="431" fill="#2563EB" font-family="Inter, Arial, sans-serif" font-size="18" font-weight="600">Test an API</text>
  <text x="920" y="497" fill="#2563EB" font-family="Inter, Arial, sans-serif" font-size="18" font-weight="600">Browse Categories</text>
  <text x="920" y="563" fill="#15803D" font-family="Inter, Arial, sans-serif" font-size="18" font-weight="600">Create Collection</text>
  <text x="920" y="629" fill="#D97706" font-family="Inter, Arial, sans-serif" font-size="18" font-weight="600">Build Workflow</text>
</svg>
